<svg xmlns="http://www.w3.org/2000/svg" width="41" height="37" viewBox="0 0 41 37">
    <g fill="none" fill-rule="evenodd">
        <path d="M-6-8h54v54H-6z"/>
        <g fill="#434343" fill-rule="nonzero">
            <path d="M7.368.873a2.006 2.006 0 1 0-2.835 2.835L7.368.873zM4.143 32.56c-1.28.98-1.465 2.872-3.616 2.125-2.151-.748 2.807 4.134 5.49 1.325 1.439-1.505.982-2.214.347-3.025-.614-.783-1.153-1.244-2.22-.425zM38.493 31.997l-6.505-6.504c-.24.299-.492.59-.759.87v3.75c0 .094-.007.186-.014.278l4.441 4.442L40.5 36.84l-2.007-4.843zm-2.54 2.353s.092-.514.35-.773c.257-.258.746-.187.853-.08-.106-.107-.177-.595.081-.854.257-.258.772-.35.772-.35l1.154 2.782-.428.427-2.782-1.152zM11.937 11.115a11.475 11.475 0 0 1 2.715-2.956l-1.87-1.87-4.64-4.639L5.31 4.484l6.628 6.63z"/>
            <path d="M21.325 4.275c-2.725 0-5.242.869-7.309 2.331l1.167 1.166c.225-.152.455-.297.692-.433a.323.323 0 1 1 .324.56 10.847 10.847 0 0 0-4.19 4.373.324.324 0 1 1-.574-.3c.05-.096.107-.188.16-.283l-1.174-1.175a12.629 12.629 0 0 0 1.994 15.442v4.157a2.227 2.227 0 0 0 4.454 0 2.227 2.227 0 0 0 4.455 0 2.227 2.227 0 0 0 4.454 0 2.228 2.228 0 0 0 4.455 0v-4.157a12.63 12.63 0 0 0 3.762-9.01c.001-6.997-5.672-12.67-12.67-12.67zm-4.692 17.86a3.34 3.34 0 1 1 0-6.68 3.341 3.341 0 1 1 0 6.68zm5.577 3.113h-1.771c-.518 0-.752-.379-.52-.842l.984-1.969c.117-.231.269-.347.422-.347.152 0 .305.116.42.347l.985 1.97c.231.463-.003.84-.52.84zm3.804-3.113a3.341 3.341 0 1 1 0-6.682 3.341 3.341 0 0 1 0 6.682zM8.561 27.89a.463.463 0 0 0-.285.197l-1.962 2.95a.703.703 0 0 0 .084.85l.926.93c.213.215.59.247.837.071l2.995-2.132a.495.495 0 0 0 .144-.16 5.508 5.508 0 0 1-2.739-2.706z"/>
            <path d="M32.683 9.357l5.758-5.759c.857-.857.902-2.214.1-3.015-.8-.803-2.158-.757-3.014.1l-5.633 5.632a13.785 13.785 0 0 1 2.79 3.042zM9.156 27.052a5.492 5.492 0 0 0 2.278 2.594v-3.287c-.257-.271-.506-.551-.742-.842l-1.536 1.535z"/>
        </g>
    </g>
</svg>
