<?xml version="1.0" encoding="utf-8"?>
<!-- Generator: Adobe Illustrator 23.0.1, SVG Export Plug-In . SVG Version: 6.00 Build 0)  -->
<svg version="1.1" id="Layer_1" xmlns="http://www.w3.org/2000/svg" xmlns:xlink="http://www.w3.org/1999/xlink" x="0px" y="0px"
	 viewBox="0 0 41 37" style="enable-background:new 0 0 41 37;" xml:space="preserve">
<style type="text/css">
	.st0{fill:#A1A1A1;}
</style>
<g>
	<path class="st0" d="M7.4,0.9C6.6,0.1,5.3,0,4.5,0.8s-0.9,2-0.1,2.8c0,0,0.1,0.1,0.1,0.1L7.4,0.9z M4.1,32.6
		c-1.3,1-1.5,2.9-3.6,2.1C-1.6,33.9,3.3,38.8,6,36c1.4-1.5,1-2.2,0.3-3C5.8,32.2,5.2,31.7,4.1,32.6L4.1,32.6z M38.5,32L32,25.5
		c-0.2,0.3-0.5,0.6-0.8,0.9v3.8c0,0.1,0,0.2,0,0.3l4.4,4.4l4.8,2L38.5,32z M36,34.3c0,0,0.1-0.5,0.3-0.8c0.3-0.3,0.7-0.2,0.9-0.1
		c-0.1-0.1-0.2-0.6,0.1-0.9c0.3-0.3,0.8-0.3,0.8-0.3l1.2,2.8l-0.4,0.4C38.7,35.5,36,34.3,36,34.3z M11.9,11.1c0.7-1.1,1.6-2.1,2.7-3
		l-1.9-1.9L8.1,1.6L5.3,4.5L11.9,11.1L11.9,11.1z"/>
	<path class="st0" d="M21.3,4.3c-2.7,0-5.2,0.9-7.3,2.3l1.2,1.2c0.2-0.2,0.5-0.3,0.7-0.4c0.2-0.1,0.4,0,0.4,0.1s0,0.4-0.1,0.4
		c-1.8,1-3.2,2.5-4.2,4.4c-0.1,0.2-0.3,0.2-0.4,0.2c-0.2-0.1-0.2-0.3-0.2-0.4c0,0,0,0,0,0c0.1-0.1,0.1-0.2,0.2-0.3l-1.2-1.2
		c-3,5-2.1,11.4,2,15.4v4.2c0,1.2,1,2.2,2.2,2.2s2.2-1,2.2-2.2c0,1.2,1,2.2,2.2,2.2c1.2,0,2.2-1,2.2-2.2c0,1.2,1,2.2,2.2,2.2
		c1.2,0,2.2-1,2.2-2.2c0,1.2,1,2.2,2.3,2.2c1.2,0,2.2-1,2.2-2.2V26c2.4-2.4,3.8-5.6,3.8-9C34,9.9,28.3,4.3,21.3,4.3L21.3,4.3z
		 M16.6,22.1c-1.8,0-3.3-1.5-3.3-3.3s1.5-3.3,3.3-3.3c1.8,0,3.4,1.4,3.4,3.3c0,1.8-1.4,3.4-3.3,3.4C16.7,22.1,16.7,22.1,16.6,22.1z
		 M22.2,25.2h-1.8c-0.5,0-0.8-0.4-0.5-0.8l1-2c0.1-0.2,0.3-0.3,0.4-0.3c0.2,0,0.3,0.1,0.4,0.3l1,2C23,24.9,22.7,25.2,22.2,25.2
		L22.2,25.2z M26,22.1c-1.8,0-3.3-1.5-3.3-3.3c0-1.8,1.5-3.3,3.3-3.3c0,0,0,0,0,0c1.8,0,3.3,1.5,3.3,3.3
		C29.4,20.6,27.9,22.1,26,22.1z M8.6,27.9c-0.1,0-0.2,0.1-0.3,0.2l-2,3c-0.2,0.3-0.1,0.6,0.1,0.9l0.9,0.9c0.2,0.2,0.6,0.2,0.8,0.1
		l3-2.1c0.1,0,0.1-0.1,0.1-0.2C10.1,30.1,9.1,29.1,8.6,27.9z"/>
	<path class="st0" d="M32.7,9.4l5.8-5.8c0.9-0.9,0.9-2.2,0.1-3c-0.8-0.8-2.2-0.8-3,0.1l-5.6,5.6C31,7.2,31.9,8.2,32.7,9.4L32.7,9.4z
		 M9.2,27.1c0.5,1.1,1.3,2,2.3,2.6v-3.3c-0.3-0.3-0.5-0.6-0.7-0.8C10.7,25.5,9.2,27.1,9.2,27.1z"/>
</g>
</svg>
