<svg xmlns="http://www.w3.org/2000/svg" width="40" height="32" viewBox="0 0 40 32">
    <g fill="none" fill-rule="evenodd">
        <path d="M-7-11h54v54H-7z"/>
        <path fill="#434343" d="M4.681 18.774v3.795L22.055 32l15.265-9.303c2.984-1.82 3.815-5.473.741-7.142l-3.119-1.693c.773-1.693.406-3.575-1.562-4.643L16.396 0 0 9.855v6.378l4.681 2.541zm9.867-14.412L8.256 8.405l3.938 2.344 6.292-4.044-3.938-2.343zm7.43 23.711l15.249-9.259c1.716-1.042 1.431 1.308-.26 2.324L21.988 30.14 6.272 21.66v-2.021l15.706 8.435zm-4.718-7.818L1.59 12.183v3.14l15.717 8.482 14.98-9.003c1.69-1.017 1.585-4.598-.167-3.607l-14.86 9.06z"/>
    </g>
</svg>
