<?xml version="1.0" encoding="utf-8"?>
<!-- Generator: Adobe Illustrator 23.0.1, SVG Export Plug-In . SVG Version: 6.00 Build 0)  -->
<svg version="1.1" id="Layer_1" xmlns="http://www.w3.org/2000/svg" xmlns:xlink="http://www.w3.org/1999/xlink" x="0px" y="0px"
	 viewBox="0 0 40 32" style="enable-background:new 0 0 40 32;" xml:space="preserve">
<style type="text/css">
	.st0{fill-rule:evenodd;clip-rule:evenodd;fill:#A1A1A1;}
</style>
<path class="st0" d="M4.7,18.8v3.8L22.1,32l15.3-9.3c3-1.8,3.8-5.5,0.7-7.1l-3.1-1.7c0.8-1.7,0.4-3.6-1.6-4.6L16.4,0L0,9.9v6.4
	L4.7,18.8z M14.5,4.4l-6.3,4l3.9,2.3l6.3-4C18.5,6.7,14.5,4.4,14.5,4.4z M22,28.1l15.2-9.3c1.7-1,1.4,1.3-0.3,2.3l-15,9L6.3,21.7v-2
	L22,28.1L22,28.1z M17.3,20.3L1.6,12.2v3.1l15.7,8.5l15-9c1.7-1,1.6-4.6-0.2-3.6C32.1,11.2,17.3,20.3,17.3,20.3z"/>
</svg>
