<?xml version="1.0" encoding="utf-8"?>
<!-- Generator: Adobe Illustrator 23.0.1, SVG Export Plug-In . SVG Version: 6.00 Build 0)  -->
<svg version="1.1" id="Layer_1" xmlns="http://www.w3.org/2000/svg" xmlns:xlink="http://www.w3.org/1999/xlink" x="0px" y="0px"
	 viewBox="0 0 38 25" style="enable-background:new 0 0 38 25;" xml:space="preserve">
<style type="text/css">
	.st0{fill-rule:evenodd;clip-rule:evenodd;fill:#A1A1A1;}
</style>
<path class="st0" d="M3.9,1.3c9.9-1.7,20-1.7,30.1,0c1.8,0.3,3.1,1.6,3.4,3.3c0.8,5.1,0.7,10.4,0,15.7c-0.3,1.8-1.6,3.1-3.4,3.4
	c-10.3,1.6-20.4,1.8-30.1,0.1c-1.8-0.3-3-1.6-3.3-3.3C-0.2,15-0.2,9.7,0.6,4.6C0.9,2.9,2.2,1.6,3.9,1.3L3.9,1.3L3.9,1.3z M24.4,12.5
	l-9.3-5.2v10.4L24.4,12.5L24.4,12.5L24.4,12.5z"/>
</svg>
