<?xml version="1.0" encoding="utf-8"?>
<!-- Generator: Adobe Illustrator 23.0.1, SVG Export Plug-In . SVG Version: 6.00 Build 0)  -->
<svg version="1.1" id="Layer_1" xmlns="http://www.w3.org/2000/svg" xmlns:xlink="http://www.w3.org/1999/xlink" x="0px" y="0px"
	 viewBox="0 0 36 30" style="enable-background:new 0 0 36 30;" xml:space="preserve">
<style type="text/css">
	.st0{fill:#A1A1A1;}
</style>
<path class="st0" d="M1.1,0C0.5,0,0,0.6,0,1.2v27.5C0,29.4,0.5,30,1.1,30h33.8c0.6,0,1.1-0.6,1.1-1.3V1.2C36,0.6,35.5,0,34.9,0H1.1
	L1.1,0z M25.9,1.2c0.6,0,1.1,0.5,1.1,1.2s-0.5,1.2-1.1,1.2s-1.1-0.5-1.1-1.2S25.3,1.2,25.9,1.2L25.9,1.2z M29.3,1.2
	c0.6,0,1.1,0.5,1.1,1.2s-0.5,1.2-1.1,1.2s-1.1-0.5-1.1-1.2S28.6,1.2,29.3,1.2z M32.6,1.2c0.6,0,1.1,0.5,1.1,1.2s-0.5,1.2-1.1,1.2
	c-0.6,0-1.1-0.5-1.1-1.2S32,1.2,32.6,1.2z M2.2,4.6h31.6c0.6,0,1.1,0.5,1.1,1v22.2c0,0.6-0.5,1-1.1,1H2.2c-0.6,0-1.1-0.5-1.1-1V5.6
	C1.1,5.1,1.6,4.6,2.2,4.6L2.2,4.6z M3.4,6.9v13.8h13.5V6.9L3.4,6.9L3.4,6.9z M19.2,6.9v1.2h13.5V6.9L19.2,6.9L19.2,6.9z M19.2,9.2
	v1.2h13.5V9.2L19.2,9.2L19.2,9.2z M6.8,9.2c0.6,0,1.1,0.5,1.1,1.1c0,0.6-0.5,1.1-1.1,1.1c-0.6,0-1.1-0.5-1.1-1.1S6.1,9.2,6.8,9.2
	L6.8,9.2z M19.2,11.5v1.2h13.5v-1.2L19.2,11.5L19.2,11.5z M10.1,12.7c0.2,0,0.3,0,0.5,0.2l2,2.3l-3.9,4.5H5.1
	c-0.3,0-0.6-0.3-0.6-0.6c0,0,0,0,0,0c0-0.2,0.1-0.3,0.2-0.4h0l5.1-5.8C9.8,12.7,10,12.7,10.1,12.7L10.1,12.7z M19.2,13.8V15h13.5
	v-1.2H19.2L19.2,13.8z M14.6,13.9c0.1,0,0.3,0,0.4,0.2l0.8,0.9v4.6c-2.6,0-4.3,0-6.4,0l4.9-5.6v0C14.3,13.9,14.5,13.9,14.6,13.9z
	 M19.2,16.1v1.2h13.5v-1.2H19.2L19.2,16.1z M19.2,18.5v1.2H27v-1.2H19.2z M3.4,23.1v1.2h29.3v-1.2C32.6,23.1,3.4,23.1,3.4,23.1z
	 M3.4,25.4v1.2h29.3v-1.2C32.6,25.4,3.4,25.4,3.4,25.4z"/>
</svg>
