<?xml version="1.0" encoding="utf-8"?>
<!-- Generator: Adobe Illustrator 24.1.3, SVG Export Plug-In . SVG Version: 6.00 Build 0)  -->
<svg version="1.1" id="Layer_1" xmlns="http://www.w3.org/2000/svg" xmlns:xlink="http://www.w3.org/1999/xlink" x="0px" y="0px"
	 viewBox="0 0 66 20" style="enable-background:new 0 0 66 20;" xml:space="preserve">
<style type="text/css">
	.st0{enable-background:new    ;}
	.st1{fill:#E5E5E5;}
</style>
<g id="_x30_1-Videos-Web" transform="translate(-109.000000, -12.000000)">
	<g class="st0">
		<path class="st1" d="M109.22,12.32h9.46v3.8h-4.99v4.03h3.64v3.51h-3.64v7.9h-4.47V12.32z"/>
		<path class="st1" d="M121.47,31.56h-3.85l4.16-19.32h4.47l4.16,19.32h-4.37l-0.6-3.61h-3.38L121.47,31.56z M124.82,24.31
			c-0.36-2.13-0.68-3.48-1.01-6.63h-0.1c-0.31,3.15-0.62,4.42-0.99,6.53l-0.13,0.73h2.34L124.82,24.31z"/>
		<path class="st1" d="M131.5,12.32h4.47v19.24h-4.47V12.32z"/>
		<path class="st1" d="M137.33,28.21l6.21-12.09h-5.72v-3.8h10.61v3.48l-6.19,12.09h6.19v3.67h-11.1V28.21z"/>
		<path class="st1" d="M152.82,31.56h-3.85l4.16-19.32h4.47l4.16,19.32h-4.37l-0.6-3.61h-3.38L152.82,31.56z M156.18,24.31
			c-0.36-2.13-0.68-3.48-1.01-6.63h-0.1c-0.31,3.15-0.62,4.42-0.99,6.53l-0.13,0.73h2.34L156.18,24.31z"/>
		<path class="st1" d="M162.73,12.32h4.6l2.44,6.66c0.52,1.53,0.91,2.65,1.22,3.82h0.1V12.32h3.46v19.24h-3.8l-3.17-7.9
			c-0.55-1.46-1.09-3.09-1.3-3.82h-0.1v11.73h-3.46V12.32z"/>
	</g>
</g>
</svg>
